<?xml version="1.0" encoding="UTF-8" standalone="no"?>
<svg
   xmlns:dc="http://purl.org/dc/elements/1.1/"
   xmlns:cc="http://creativecommons.org/ns#"
   xmlns:rdf="http://www.w3.org/1999/02/22-rdf-syntax-ns#"
   xmlns:svg="http://www.w3.org/2000/svg"
   xmlns="http://www.w3.org/2000/svg"
   xmlns:sodipodi="http://sodipodi.sourceforge.net/DTD/sodipodi-0.dtd"
   xmlns:inkscape="http://www.inkscape.org/namespaces/inkscape"
   width="24"
   height="24"
   viewBox="0 0 24 24"
   version="1.1"
   id="svg4"
   sodipodi:docname="wifi.svg"
   inkscape:version="0.92.4 (5da689c313, 2019-01-14)">
  <metadata
     id="metadata10">
    <rdf:RDF>
      <cc:Work
         rdf:about="">
        <dc:format>image/svg+xml</dc:format>
        <dc:type
           rdf:resource="http://purl.org/dc/dcmitype/StillImage" />
      </cc:Work>
    </rdf:RDF>
  </metadata>
  <defs
     id="defs8" />
  <sodipodi:namedview
     pagecolor="#ffffff"
     bordercolor="#666666"
     borderopacity="1"
     objecttolerance="10"
     gridtolerance="10"
     guidetolerance="10"
     inkscape:pageopacity="0"
     inkscape:pageshadow="2"
     inkscape:window-width="1920"
     inkscape:window-height="1012"
     id="namedview6"
     showgrid="false"
     inkscape:zoom="9.8333333"
     inkscape:cx="-12.101695"
     inkscape:cy="11.59322"
     inkscape:window-x="0"
     inkscape:window-y="32"
     inkscape:window-maximized="1"
     inkscape:current-layer="svg4" />
  <path
     d="M8.213 16.984c.97-1.028 2.308-1.664 3.787-1.664s2.817.636 3.787 1.664l-3.787 4.016-3.787-4.016zm-1.747-1.854c1.417-1.502 3.373-2.431 5.534-2.431s4.118.929 5.534 2.431l2.33-2.472c-2.012-2.134-4.793-3.454-7.864-3.454s-5.852 1.32-7.864 3.455l2.33 2.471zm-4.078-4.325c2.46-2.609 5.859-4.222 9.612-4.222s7.152 1.613 9.612 4.222l2.388-2.533c-3.071-3.257-7.313-5.272-12-5.272s-8.929 2.015-12 5.272l2.388 2.533z"
     id="path2"
     style="fill:#ffffff" />
</svg>
